<svg width="329" height="129" viewBox="0 0 329 129" fill="none" xmlns="http://www.w3.org/2000/svg">
<rect x="69" width="192" height="129" fill="#D9D9D9"/>
<path d="M32.857 77.808C30.521 77.808 28.361 77.36 26.377 76.464C24.425 75.568 22.857 74.272 21.673 72.576C20.489 70.88 19.897 68.832 19.897 66.432C19.897 63.872 20.505 61.44 21.721 59.136C22.969 56.832 24.697 54.784 26.905 52.992C29.145 51.168 31.785 49.744 34.825 48.72C37.865 47.664 41.177 47.136 44.761 47.136C45.401 47.136 46.105 47.216 46.873 47.376C47.673 47.504 48.361 47.776 48.937 48.192C49.513 48.576 49.801 49.152 49.801 49.92C49.801 50.144 49.753 50.352 49.657 50.544C49.593 50.736 49.529 50.928 49.465 51.12C49.337 51.632 49.145 52.144 48.889 52.656C48.665 53.136 48.441 53.616 48.217 54.096C47.993 54.64 47.737 55.264 47.449 55.968C47.161 56.64 46.889 57.344 46.633 58.08L46.009 57.648C46.009 57.648 46.105 57.392 46.297 56.88C46.489 56.368 46.681 55.792 46.873 55.152C47.097 54.512 47.225 54.016 47.257 53.664C47.321 52.8 47.129 52.112 46.681 51.6C46.265 51.088 45.689 50.704 44.953 50.448C44.249 50.192 43.497 50.032 42.697 49.968C41.897 49.872 41.161 49.824 40.489 49.824C38.569 49.824 36.697 50.08 34.873 50.592C33.049 51.104 31.401 51.904 29.929 52.992C28.457 54.048 27.241 55.424 26.281 57.12C25.353 58.784 24.809 60.8 24.649 63.168C24.649 63.328 24.633 63.504 24.601 63.696C24.601 63.856 24.601 64.016 24.601 64.176C24.601 66.192 24.969 67.968 25.705 69.504C26.473 71.04 27.449 72.336 28.633 73.392C29.817 74.448 31.113 75.248 32.521 75.792C33.929 76.304 35.273 76.56 36.553 76.56C37.865 76.56 39.033 76.272 40.057 75.696C41.081 75.12 41.769 74.256 42.121 73.104C42.377 72.208 42.585 71.2 42.745 70.08C42.937 68.928 43.129 67.904 43.321 67.008C43.449 66.4 43.337 65.968 42.985 65.712C42.665 65.424 42.361 65.264 42.073 65.232C41.817 65.2 41.385 65.168 40.777 65.136C40.201 65.104 39.593 65.088 38.953 65.088C38.345 65.056 37.817 65.04 37.369 65.04C37.241 65.072 37.017 65.088 36.697 65.088C36.409 65.088 36.265 65.088 36.265 65.088L36.745 64.272C38.249 64.304 39.737 64.352 41.209 64.416C42.713 64.48 44.201 64.512 45.673 64.512C46.089 64.512 46.777 64.512 47.737 64.512C48.729 64.48 49.897 64.448 51.241 64.416C52.617 64.352 54.057 64.288 55.561 64.224L55.033 65.04C54.713 65.008 54.377 64.992 54.025 64.992C53.705 64.992 53.401 64.992 53.113 64.992H51.625C50.857 64.992 50.249 65.12 49.801 65.376C49.385 65.632 49.017 66.08 48.697 66.72C48.409 67.328 48.057 68.192 47.641 69.312C47.513 69.664 47.353 70.32 47.161 71.28C47.001 72.208 46.857 73.216 46.729 74.304C46.601 75.36 46.521 76.288 46.489 77.088C46.489 77.504 46.377 77.712 46.153 77.712C45.961 77.712 45.737 77.6 45.481 77.376C45.289 77.216 45.001 77.104 44.617 77.04C44.233 76.976 43.769 76.944 43.225 76.944C42.265 76.944 41.129 77.024 39.817 77.184C38.537 77.312 37.273 77.456 36.025 77.616C34.809 77.744 33.753 77.808 32.857 77.808ZM74.6808 77.76C73.9448 77.76 73.0008 77.712 71.8488 77.616C70.7288 77.488 69.3848 77.328 67.8168 77.136C67.5928 77.104 67.3688 77.088 67.1448 77.088C66.9208 77.088 66.6808 77.088 66.4248 77.088C65.4328 77.088 64.3288 77.136 63.1128 77.232C61.9288 77.328 60.7288 77.376 59.5128 77.376H51.7848C51.5608 77.376 51.4488 77.232 51.4488 76.944C51.4488 76.816 51.4808 76.704 51.5448 76.608C51.6408 76.512 51.7528 76.496 51.8808 76.56C52.5848 76.592 53.1768 76.608 53.6568 76.608C54.1368 76.608 54.5848 76.608 55.0008 76.608C55.7688 76.608 56.4728 76.496 57.1128 76.272C57.7528 76.048 58.3288 75.6 58.8408 74.928C59.3528 74.256 59.8008 73.248 60.1848 71.904C60.3768 71.264 60.6168 70.32 60.9048 69.072C61.2248 67.824 61.5608 66.4 61.9128 64.8C62.2648 63.2 62.6008 61.536 62.9208 59.808C63.2728 58.048 63.5608 56.352 63.7848 54.72C64.0408 53.056 64.2168 51.568 64.3128 50.256C64.3768 49.648 64.2328 49.2 63.8808 48.912C63.5288 48.624 63.2088 48.448 62.9208 48.384C62.6008 48.288 62.0888 48.224 61.3848 48.192C60.6808 48.16 60.0088 48.144 59.3688 48.144C58.9848 48.144 58.6328 48.16 58.3128 48.192C58.0248 48.192 57.8008 48.192 57.6408 48.192C57.4808 48.192 57.4008 48.128 57.4008 48C57.4008 47.872 57.4648 47.744 57.5928 47.616C57.7528 47.456 57.9128 47.376 58.0728 47.376C59.1288 47.44 60.2808 47.488 61.5288 47.52C62.8088 47.552 64.0888 47.584 65.3688 47.616C66.6488 47.616 67.8008 47.616 68.8248 47.616C69.3368 47.616 70.1208 47.584 71.1768 47.52C72.2328 47.456 73.4008 47.408 74.6808 47.376C75.9608 47.312 77.1448 47.28 78.2328 47.28H78.2808C78.4728 47.28 78.5688 47.424 78.5688 47.712C78.5688 47.84 78.5368 47.952 78.4728 48.048C78.4088 48.112 78.2968 48.128 78.1368 48.096C77.4328 48.064 76.7768 48.048 76.1688 48.048C75.5608 48.016 75.0008 48 74.4888 48C73.2088 48 72.2008 48.128 71.4648 48.384C70.7608 48.64 70.2008 49.168 69.7848 49.968C69.3688 50.768 68.9528 51.984 68.5368 53.616C68.0888 55.408 67.7048 57.056 67.3848 58.56C67.0648 60.032 66.7768 61.456 66.5208 62.832C66.2968 64.208 66.0568 65.648 65.8008 67.152C65.5768 68.624 65.3368 70.272 65.0807 72.096C65.0488 72.256 65.0168 72.432 64.9848 72.624C64.9848 72.784 64.9848 72.944 64.9848 73.104C64.9848 73.936 65.3208 74.608 65.9928 75.12C66.6968 75.632 68.0728 75.888 70.1208 75.888C72.5208 75.888 74.6328 75.232 76.4568 73.92C78.2808 72.576 79.7208 70.864 80.7768 68.784C80.8408 68.688 80.9048 68.64 80.9688 68.64C81.0328 68.64 81.0968 68.704 81.1608 68.832C81.2248 68.928 81.2248 69.04 81.1608 69.168C81.0008 69.52 80.7928 70.08 80.5368 70.848C80.2808 71.584 79.9768 72.4 79.6248 73.296C79.2728 74.16 78.8568 74.976 78.3768 75.744C77.9288 76.48 77.4168 77.024 76.8408 77.376C76.4248 77.632 75.7048 77.76 74.6808 77.76ZM97.9979 78.192C97.0059 78.192 96.0459 78.08 95.1179 77.856C94.1899 77.6 93.4859 77.136 93.0059 76.464C92.7819 76.176 92.6699 75.92 92.6699 75.696C92.6699 75.536 92.7499 75.344 92.9099 75.12C93.1979 74.768 93.4699 74.496 93.7259 74.304C93.9819 74.08 94.2379 73.808 94.4939 73.488C94.7819 73.136 95.0539 72.592 95.3099 71.856C95.3739 71.696 95.4539 71.504 95.5499 71.28C95.6459 71.024 95.7419 70.8 95.8379 70.608C95.9659 70.384 96.1099 70.272 96.2699 70.272C96.3659 70.272 96.4299 70.336 96.4619 70.464C96.5259 70.56 96.5099 70.688 96.4139 70.848C96.3179 71.072 96.2539 71.328 96.2219 71.616C96.1899 71.904 96.1739 72.192 96.1739 72.48C96.1739 72.704 96.1739 72.944 96.1739 73.2C96.2059 73.424 96.2379 73.632 96.2699 73.824C96.3979 74.528 96.6379 75.152 96.9899 75.696C97.3419 76.24 97.9179 76.512 98.7179 76.512C99.7739 76.512 100.606 76.16 101.214 75.456C101.854 74.752 102.334 73.92 102.654 72.96C103.006 71.968 103.294 71.072 103.518 70.272C104.19 67.968 104.766 65.76 105.246 63.648C105.726 61.504 106.158 59.36 106.542 57.216C106.958 55.072 107.358 52.816 107.742 50.448C107.87 49.808 107.758 49.344 107.406 49.056C107.054 48.768 106.75 48.592 106.494 48.528C106.206 48.464 105.742 48.432 105.102 48.432C104.462 48.4 103.822 48.384 103.182 48.384C102.702 48.384 102.27 48.4 101.886 48.432C101.502 48.464 101.23 48.48 101.07 48.48H100.974C100.878 48.48 100.83 48.448 100.83 48.384C100.83 48.256 100.926 48.096 101.118 47.904C101.31 47.712 101.502 47.616 101.694 47.616C102.59 47.68 103.39 47.728 104.094 47.76C104.83 47.76 105.566 47.76 106.302 47.76H108.606C108.926 47.76 109.23 47.776 109.518 47.808C109.806 47.808 110.094 47.808 110.382 47.808C110.67 47.808 110.958 47.808 111.246 47.808C111.566 47.776 111.87 47.76 112.158 47.76C112.83 47.728 113.662 47.696 114.654 47.664C115.646 47.632 116.638 47.616 117.63 47.616C117.982 47.616 118.302 47.632 118.59 47.664C118.91 47.664 119.23 47.664 119.55 47.664H119.598C119.694 47.664 119.742 47.696 119.742 47.76C119.742 47.888 119.646 48.048 119.454 48.24C119.294 48.432 119.15 48.512 119.022 48.48C118.414 48.448 117.838 48.432 117.294 48.432C116.782 48.4 116.302 48.384 115.854 48.384C114.862 48.384 114.046 48.784 113.406 49.584C112.798 50.352 112.286 51.296 111.87 52.416C111.742 52.832 111.566 53.488 111.342 54.384C111.15 55.248 110.942 56.208 110.718 57.264C110.334 59.152 109.902 61.216 109.422 63.456C108.974 65.696 108.574 67.728 108.222 69.552C107.998 70.608 107.806 71.568 107.646 72.432C107.486 73.296 107.006 74.176 106.206 75.072C105.598 75.776 104.878 76.384 104.046 76.896C103.246 77.376 102.19 77.728 100.878 77.952C100.462 78.016 100.014 78.064 99.5339 78.096C99.0539 78.16 98.5419 78.192 97.9979 78.192ZM137.698 77.712C136.93 77.712 135.938 77.664 134.722 77.568C133.538 77.472 132.098 77.36 130.402 77.232C129.122 77.136 127.954 77.088 126.898 77.088C126.194 77.088 125.474 77.104 124.738 77.136C124.034 77.136 123.234 77.168 122.338 77.232C121.89 77.232 121.202 77.248 120.274 77.28C119.346 77.312 118.322 77.344 117.202 77.376C116.082 77.376 114.994 77.376 113.938 77.376H113.89C113.794 77.376 113.746 77.344 113.746 77.28C113.746 77.152 113.826 77.008 113.986 76.848C114.178 76.656 114.338 76.56 114.466 76.56C115.234 76.592 115.922 76.624 116.53 76.656C117.138 76.656 117.682 76.656 118.162 76.656C119.314 76.656 120.146 76.544 120.658 76.32C121.202 76.064 121.634 75.552 121.954 74.784C122.274 73.984 122.674 72.784 123.154 71.184C123.57 69.776 123.954 68.336 124.306 66.864C124.69 65.392 125.026 63.968 125.314 62.592C125.09 62.624 124.834 62.64 124.546 62.64C124.258 62.64 124.002 62.656 123.778 62.688H123.25C122.866 62.688 122.674 62.64 122.674 62.544C122.674 62.384 122.898 62.208 123.346 62.016C123.794 61.792 124.146 61.648 124.402 61.584C124.498 61.52 124.642 61.488 124.834 61.488C125.058 61.488 125.282 61.472 125.506 61.44C125.858 59.68 126.146 58.096 126.37 56.688C126.594 55.28 126.738 54.208 126.802 53.472C126.866 53.184 126.914 52.848 126.946 52.464C126.978 52.048 126.994 51.632 126.994 51.216C126.994 50.608 126.898 50.048 126.706 49.536C126.514 49.024 126.114 48.72 125.506 48.624C125.25 48.56 124.834 48.528 124.258 48.528C123.682 48.496 123.074 48.48 122.434 48.48C121.826 48.448 121.298 48.432 120.85 48.432H119.794L120.274 47.664L121.186 47.616C121.442 47.584 121.698 47.568 121.954 47.568C122.242 47.568 122.514 47.568 122.77 47.568C124.018 47.568 125.218 47.616 126.37 47.712C127.554 47.776 128.69 47.808 129.778 47.808C132.242 47.808 134.498 47.792 136.546 47.76C138.594 47.696 140.818 47.6 143.218 47.472C144.05 47.408 144.626 47.52 144.946 47.808C145.298 48.064 145.474 48.528 145.474 49.2C145.474 49.552 145.426 50 145.33 50.544C145.138 51.6 145.01 52.496 144.946 53.232C144.882 53.968 144.786 54.88 144.658 55.968C144.626 56.064 144.594 56.256 144.562 56.544C144.53 56.8 144.514 56.928 144.514 56.928L143.842 56.496C143.842 56.496 143.858 56.368 143.89 56.112C143.922 55.856 143.938 55.696 143.938 55.632C143.97 55.376 143.986 55.136 143.986 54.912C144.018 54.688 144.034 54.464 144.034 54.24C144.034 52.608 143.666 51.392 142.93 50.592C142.226 49.76 141.298 49.344 140.146 49.344C139.09 49.376 138.098 49.392 137.17 49.392C136.274 49.392 135.442 49.504 134.674 49.728C133.938 49.92 133.298 50.32 132.754 50.928C132.21 51.504 131.794 52.4 131.506 53.616C130.802 56.432 130.242 58.928 129.826 61.104C130.754 61.04 131.746 60.976 132.802 60.912C133.858 60.848 134.978 60.8 136.162 60.768C136.898 60.736 137.666 60.672 138.466 60.576C139.298 60.448 140.034 60.304 140.674 60.144C141.314 59.984 141.73 59.84 141.922 59.712C142.082 59.616 142.162 59.6 142.162 59.664C142.194 59.728 142.162 59.84 142.066 60C141.81 60.48 141.378 60.928 140.77 61.344C140.162 61.76 139.634 62.064 139.186 62.256C138.802 62.448 138.418 62.576 138.034 62.64C137.65 62.672 137.234 62.688 136.786 62.688C135.058 62.688 133.634 62.672 132.514 62.64C131.394 62.608 130.402 62.592 129.538 62.592C129.282 64.032 129.026 65.504 128.77 67.008C128.546 68.512 128.306 70.208 128.05 72.096C128.018 72.256 127.986 72.432 127.954 72.624C127.954 72.784 127.954 72.944 127.954 73.104C127.954 73.936 128.29 74.608 128.962 75.12C129.634 75.632 130.994 75.888 133.042 75.888C135.442 75.888 137.57 75.2 139.426 73.824C141.282 72.416 142.738 70.672 143.794 68.592L144.274 68.928C144.114 69.28 143.89 69.84 143.602 70.608C143.346 71.376 143.026 72.224 142.642 73.152C142.258 74.048 141.826 74.88 141.346 75.648C140.866 76.416 140.338 76.992 139.762 77.376C139.41 77.6 138.722 77.712 137.698 77.712ZM156.342 78.336C155.99 78.336 155.83 78.128 155.862 77.712C155.894 77.264 155.878 76.688 155.814 75.984C155.526 72.336 155.174 68.64 154.758 64.896C154.374 61.152 153.846 57.488 153.174 53.904C152.886 52.368 152.486 51.216 151.974 50.448C151.494 49.648 150.95 49.12 150.342 48.864C149.766 48.576 149.19 48.432 148.614 48.432C148.07 48.432 147.606 48.432 147.222 48.432C147.03 48.432 146.934 48.368 146.934 48.24C146.934 48.112 147.014 47.984 147.174 47.856C147.366 47.696 147.558 47.616 147.75 47.616C148.838 47.648 149.686 47.68 150.294 47.712C150.934 47.712 151.462 47.712 151.878 47.712C152.294 47.712 152.742 47.728 153.222 47.76C153.862 47.792 154.502 47.824 155.142 47.856C155.782 47.856 156.422 47.856 157.062 47.856C158.086 47.856 159.11 47.84 160.134 47.808C161.158 47.744 162.15 47.696 163.11 47.664C163.27 47.664 163.35 47.744 163.35 47.904C163.35 48.032 163.302 48.16 163.206 48.288C163.11 48.384 162.982 48.432 162.822 48.432C162.502 48.432 162.054 48.432 161.478 48.432C160.934 48.432 160.374 48.48 159.798 48.576C159.222 48.672 158.726 48.864 158.31 49.152C157.926 49.44 157.734 49.856 157.734 50.4C157.734 51.104 157.798 52.128 157.926 53.472C158.054 54.816 158.214 56.336 158.406 58.032C158.598 59.696 158.806 61.408 159.03 63.168C159.254 64.896 159.478 66.528 159.702 68.064C159.926 69.6 160.118 70.88 160.278 71.904C160.374 72.512 160.55 72.816 160.806 72.816C160.998 72.816 161.286 72.528 161.67 71.952C162.566 70.512 163.478 68.928 164.406 67.2C165.334 65.44 166.262 63.632 167.19 61.776C168.15 59.92 169.094 58.128 170.022 56.4C170.374 55.792 170.598 55.312 170.694 54.96C170.822 54.576 170.885 54.224 170.885 53.904C170.885 53.712 170.87 53.52 170.838 53.328C170.806 53.136 170.758 52.928 170.694 52.704C170.47 51.328 170.054 50.288 169.446 49.584C168.87 48.848 167.686 48.48 165.894 48.48H165.798C165.606 48.48 165.51 48.368 165.51 48.144C165.51 48.016 165.542 47.904 165.606 47.808C165.702 47.68 165.814 47.632 165.942 47.664C167.062 47.696 167.878 47.728 168.39 47.76C168.902 47.792 169.318 47.824 169.638 47.856C169.958 47.856 170.358 47.872 170.838 47.904C171.382 47.936 171.958 47.952 172.566 47.952C173.174 47.952 173.814 47.952 174.486 47.952C175.798 47.952 177.142 47.936 178.518 47.904C179.926 47.872 181.142 47.824 182.166 47.76C182.262 47.76 182.31 47.808 182.31 47.904C182.31 48 182.262 48.112 182.166 48.24C182.07 48.368 181.942 48.448 181.782 48.48C181.398 48.544 180.854 48.64 180.15 48.768C179.478 48.864 178.79 49.024 178.086 49.248C177.382 49.472 176.79 49.76 176.31 50.112C175.83 50.464 175.59 50.912 175.59 51.456C175.59 52.16 175.654 53.152 175.782 54.432C175.91 55.712 176.054 57.136 176.214 58.704C176.406 60.272 176.614 61.872 176.838 63.504C177.062 65.136 177.286 66.688 177.51 68.16C177.734 69.632 177.926 70.88 178.086 71.904C178.182 72.512 178.358 72.816 178.614 72.816C178.838 72.816 179.142 72.528 179.526 71.952C180.55 70.288 181.606 68.416 182.694 66.336C183.782 64.256 184.87 62.144 185.958 60C187.078 57.824 188.166 55.792 189.222 53.904C189.638 53.168 189.926 52.544 190.086 52.032C190.246 51.488 190.326 51.024 190.326 50.64C190.326 49.744 189.974 49.168 189.27 48.912C188.598 48.656 187.846 48.528 187.014 48.528C186.662 48.528 186.31 48.544 185.958 48.576C185.606 48.608 185.286 48.624 184.998 48.624H184.854C184.758 48.624 184.71 48.592 184.71 48.528C184.71 48.4 184.822 48.24 185.046 48.048C185.27 47.856 185.462 47.792 185.622 47.856C187.126 47.76 188.47 47.712 189.654 47.712C190.39 47.712 191.03 47.728 191.574 47.76C192.15 47.76 192.63 47.76 193.014 47.76C193.91 47.792 195.03 47.776 196.374 47.712C197.75 47.648 199.094 47.616 200.406 47.616C200.502 47.616 200.55 47.648 200.55 47.712C200.55 47.84 200.47 48.016 200.31 48.24C200.15 48.432 200.006 48.512 199.878 48.48C199.654 48.48 199.222 48.496 198.582 48.528C197.942 48.528 197.19 48.752 196.326 49.2C195.494 49.616 194.614 50.464 193.686 51.744C193.174 52.448 192.534 53.392 191.766 54.576C191.03 55.728 190.214 57.04 189.318 58.512C188.422 59.952 187.526 61.424 186.63 62.928C185.766 64.432 184.934 65.888 184.134 67.296C183.334 68.672 182.63 69.888 182.022 70.944C181.446 72 181.03 72.8 180.774 73.344C180.582 73.728 180.486 74.032 180.486 74.256C180.518 74.448 180.518 74.624 180.486 74.784C180.454 74.912 180.278 75.072 179.958 75.264C179.67 75.424 179.142 75.648 178.374 75.936C177.862 76.128 177.35 76.416 176.838 76.8C176.358 77.184 175.894 77.536 175.446 77.856C174.998 78.144 174.582 78.304 174.198 78.336C173.974 78.336 173.83 78.256 173.766 78.096C173.734 77.936 173.718 77.728 173.718 77.472C173.718 77.28 173.718 77.056 173.718 76.8C173.718 76.544 173.702 76.272 173.67 75.984C173.446 73.04 173.174 70.08 172.854 67.104C172.566 64.096 172.198 61.136 171.75 58.224C170.886 59.568 169.99 60.992 169.062 62.496C168.166 64 167.302 65.472 166.47 66.912C165.638 68.352 164.902 69.648 164.262 70.8C163.654 71.92 163.206 72.768 162.918 73.344C162.726 73.728 162.63 74.032 162.63 74.256C162.662 74.448 162.662 74.624 162.63 74.784C162.598 74.912 162.438 75.072 162.15 75.264C161.862 75.424 161.334 75.648 160.566 75.936C160.054 76.128 159.542 76.416 159.03 76.8C158.518 77.184 158.038 77.536 157.59 77.856C157.142 78.144 156.726 78.304 156.342 78.336ZM214.901 77.712C214.133 77.712 213.141 77.664 211.925 77.568C210.741 77.472 209.301 77.36 207.605 77.232C206.325 77.136 205.157 77.088 204.101 77.088C203.397 77.088 202.677 77.104 201.941 77.136C201.237 77.136 200.437 77.168 199.541 77.232C199.093 77.232 198.405 77.248 197.477 77.28C196.549 77.312 195.525 77.344 194.405 77.376C193.285 77.376 192.197 77.376 191.141 77.376H191.093C190.997 77.376 190.949 77.344 190.949 77.28C190.949 77.152 191.029 77.008 191.189 76.848C191.381 76.656 191.541 76.56 191.669 76.56C192.437 76.592 193.125 76.624 193.733 76.656C194.341 76.656 194.885 76.656 195.365 76.656C196.517 76.656 197.349 76.544 197.861 76.32C198.405 76.064 198.837 75.552 199.157 74.784C199.477 73.984 199.877 72.784 200.357 71.184C200.773 69.776 201.157 68.336 201.509 66.864C201.893 65.392 202.229 63.968 202.517 62.592C202.293 62.624 202.037 62.64 201.749 62.64C201.461 62.64 201.205 62.656 200.981 62.688H200.453C200.069 62.688 199.877 62.64 199.877 62.544C199.877 62.384 200.101 62.208 200.549 62.016C200.997 61.792 201.349 61.648 201.605 61.584C201.701 61.52 201.845 61.488 202.037 61.488C202.261 61.488 202.485 61.472 202.709 61.44C203.061 59.68 203.349 58.096 203.573 56.688C203.797 55.28 203.941 54.208 204.005 53.472C204.069 53.184 204.117 52.848 204.149 52.464C204.181 52.048 204.197 51.632 204.197 51.216C204.197 50.608 204.101 50.048 203.909 49.536C203.717 49.024 203.317 48.72 202.709 48.624C202.453 48.56 202.037 48.528 201.461 48.528C200.885 48.496 200.277 48.48 199.637 48.48C199.029 48.448 198.501 48.432 198.053 48.432H196.997L197.477 47.664L198.389 47.616C198.645 47.584 198.901 47.568 199.157 47.568C199.445 47.568 199.717 47.568 199.973 47.568C201.221 47.568 202.421 47.616 203.573 47.712C204.757 47.776 205.893 47.808 206.981 47.808C209.445 47.808 211.701 47.792 213.749 47.76C215.797 47.696 218.021 47.6 220.421 47.472C221.253 47.408 221.829 47.52 222.149 47.808C222.501 48.064 222.677 48.528 222.677 49.2C222.677 49.552 222.629 50 222.533 50.544C222.341 51.6 222.213 52.496 222.149 53.232C222.085 53.968 221.989 54.88 221.861 55.968C221.829 56.064 221.797 56.256 221.765 56.544C221.733 56.8 221.717 56.928 221.717 56.928L221.045 56.496C221.045 56.496 221.061 56.368 221.093 56.112C221.125 55.856 221.141 55.696 221.141 55.632C221.173 55.376 221.189 55.136 221.189 54.912C221.221 54.688 221.237 54.464 221.237 54.24C221.237 52.608 220.869 51.392 220.133 50.592C219.429 49.76 218.501 49.344 217.349 49.344C216.293 49.376 215.301 49.392 214.373 49.392C213.477 49.392 212.645 49.504 211.877 49.728C211.141 49.92 210.501 50.32 209.957 50.928C209.413 51.504 208.997 52.4 208.709 53.616C208.005 56.432 207.445 58.928 207.029 61.104C207.957 61.04 208.949 60.976 210.005 60.912C211.061 60.848 212.181 60.8 213.365 60.768C214.101 60.736 214.869 60.672 215.669 60.576C216.501 60.448 217.237 60.304 217.877 60.144C218.517 59.984 218.933 59.84 219.125 59.712C219.285 59.616 219.365 59.6 219.365 59.664C219.397 59.728 219.365 59.84 219.269 60C219.013 60.48 218.581 60.928 217.973 61.344C217.365 61.76 216.837 62.064 216.389 62.256C216.005 62.448 215.621 62.576 215.237 62.64C214.853 62.672 214.437 62.688 213.989 62.688C212.261 62.688 210.837 62.672 209.717 62.64C208.597 62.608 207.605 62.592 206.741 62.592C206.485 64.032 206.229 65.504 205.973 67.008C205.749 68.512 205.509 70.208 205.253 72.096C205.221 72.256 205.189 72.432 205.157 72.624C205.157 72.784 205.157 72.944 205.157 73.104C205.157 73.936 205.493 74.608 206.165 75.12C206.837 75.632 208.197 75.888 210.245 75.888C212.645 75.888 214.773 75.2 216.629 73.824C218.485 72.416 219.941 70.672 220.997 68.592L221.477 68.928C221.317 69.28 221.093 69.84 220.805 70.608C220.549 71.376 220.229 72.224 219.845 73.152C219.461 74.048 219.029 74.88 218.549 75.648C218.069 76.416 217.541 76.992 216.965 77.376C216.613 77.6 215.925 77.712 214.901 77.712ZM245.353 77.76C244.617 77.76 243.673 77.712 242.521 77.616C241.401 77.488 240.057 77.328 238.489 77.136C238.265 77.104 238.041 77.088 237.817 77.088C237.593 77.088 237.353 77.088 237.097 77.088C236.105 77.088 235.001 77.136 233.785 77.232C232.601 77.328 231.401 77.376 230.185 77.376H222.457C222.233 77.376 222.121 77.232 222.121 76.944C222.121 76.816 222.153 76.704 222.217 76.608C222.313 76.512 222.425 76.496 222.553 76.56C223.257 76.592 223.849 76.608 224.329 76.608C224.809 76.608 225.257 76.608 225.673 76.608C226.441 76.608 227.145 76.496 227.785 76.272C228.425 76.048 229.001 75.6 229.513 74.928C230.025 74.256 230.473 73.248 230.857 71.904C231.049 71.264 231.289 70.32 231.577 69.072C231.897 67.824 232.233 66.4 232.585 64.8C232.937 63.2 233.273 61.536 233.593 59.808C233.945 58.048 234.233 56.352 234.457 54.72C234.713 53.056 234.889 51.568 234.985 50.256C235.049 49.648 234.905 49.2 234.553 48.912C234.201 48.624 233.881 48.448 233.593 48.384C233.273 48.288 232.761 48.224 232.057 48.192C231.353 48.16 230.681 48.144 230.041 48.144C229.657 48.144 229.305 48.16 228.985 48.192C228.697 48.192 228.473 48.192 228.313 48.192C228.153 48.192 228.073 48.128 228.073 48C228.073 47.872 228.137 47.744 228.265 47.616C228.425 47.456 228.585 47.376 228.745 47.376C229.801 47.44 230.953 47.488 232.201 47.52C233.481 47.552 234.761 47.584 236.041 47.616C237.321 47.616 238.473 47.616 239.497 47.616C240.009 47.616 240.793 47.584 241.849 47.52C242.905 47.456 244.073 47.408 245.353 47.376C246.633 47.312 247.817 47.28 248.905 47.28H248.953C249.145 47.28 249.241 47.424 249.241 47.712C249.241 47.84 249.209 47.952 249.145 48.048C249.081 48.112 248.969 48.128 248.809 48.096C248.105 48.064 247.449 48.048 246.841 48.048C246.233 48.016 245.673 48 245.161 48C243.881 48 242.873 48.128 242.137 48.384C241.433 48.64 240.873 49.168 240.457 49.968C240.041 50.768 239.625 51.984 239.209 53.616C238.761 55.408 238.377 57.056 238.057 58.56C237.737 60.032 237.449 61.456 237.193 62.832C236.969 64.208 236.729 65.648 236.473 67.152C236.249 68.624 236.009 70.272 235.753 72.096C235.721 72.256 235.689 72.432 235.657 72.624C235.657 72.784 235.657 72.944 235.657 73.104C235.657 73.936 235.993 74.608 236.665 75.12C237.369 75.632 238.745 75.888 240.793 75.888C243.193 75.888 245.305 75.232 247.129 73.92C248.953 72.576 250.393 70.864 251.449 68.784C251.513 68.688 251.577 68.64 251.641 68.64C251.705 68.64 251.769 68.704 251.833 68.832C251.897 68.928 251.897 69.04 251.833 69.168C251.673 69.52 251.465 70.08 251.209 70.848C250.953 71.584 250.649 72.4 250.297 73.296C249.945 74.16 249.529 74.976 249.049 75.744C248.601 76.48 248.089 77.024 247.513 77.376C247.097 77.632 246.377 77.76 245.353 77.76ZM281.094 80.4C279.814 80.368 278.614 79.92 277.494 79.056C276.374 78.224 275.35 77.168 274.422 75.888C273.526 74.576 272.758 73.248 272.118 71.904C271.478 70.56 270.982 69.392 270.63 68.4C270.406 67.696 270.134 66.976 269.814 66.24C269.494 65.472 269.19 64.816 268.902 64.272C268.614 63.728 268.39 63.408 268.23 63.312C267.974 63.184 267.846 62.976 267.846 62.688C267.846 62.496 267.91 62.32 268.038 62.16C268.198 61.968 268.358 61.872 268.518 61.872C268.71 61.872 268.822 61.984 268.854 62.208C268.918 62.4 269.062 62.624 269.286 62.88C269.51 63.104 269.942 63.264 270.582 63.36C271.542 63.456 272.47 63.168 273.366 62.496C274.262 61.792 275.062 60.88 275.766 59.76C276.47 58.64 277.03 57.488 277.446 56.304C277.894 55.12 278.15 54.112 278.214 53.28C278.31 51.872 278.054 50.672 277.446 49.68C276.87 48.656 275.878 48.144 274.47 48.144C273.03 48.144 271.942 48.656 271.206 49.68C270.47 50.704 269.798 52 269.19 53.568C269.062 53.952 268.854 54.64 268.566 55.632C268.278 56.624 267.926 58.032 267.51 59.856C267.126 61.648 266.662 63.968 266.118 66.816C266.086 67.04 266.006 67.504 265.878 68.208C265.782 68.88 265.686 69.632 265.59 70.464C265.494 71.296 265.446 72.096 265.446 72.864C265.446 73.024 265.446 73.2 265.446 73.392C265.446 73.552 265.462 73.712 265.494 73.872C265.558 74.576 265.798 75.184 266.214 75.696C266.662 76.176 267.238 76.448 267.942 76.512C268.582 76.608 269.382 76.656 270.342 76.656C270.758 76.656 271.142 76.656 271.494 76.656C271.878 76.624 272.23 76.592 272.55 76.56C272.646 76.56 272.694 76.608 272.694 76.704C272.694 76.832 272.598 77.008 272.406 77.232C272.246 77.424 272.07 77.504 271.878 77.472C269.318 77.408 267.254 77.36 265.686 77.328C264.15 77.296 262.902 77.28 261.942 77.28C261.014 77.248 260.198 77.232 259.494 77.232C259.014 77.232 258.31 77.248 257.382 77.28C256.454 77.312 255.43 77.344 254.31 77.376C253.19 77.376 252.118 77.376 251.094 77.376H251.046C250.95 77.376 250.902 77.328 250.902 77.232C250.902 77.104 250.982 76.96 251.142 76.8C251.334 76.608 251.494 76.528 251.622 76.56C252.39 76.56 253.078 76.576 253.686 76.608C254.294 76.608 254.822 76.608 255.27 76.608C256.422 76.608 257.27 76.496 257.814 76.272C258.358 76.016 258.79 75.504 259.11 74.736C259.43 73.968 259.814 72.784 260.262 71.184C261.254 67.696 262.07 64.352 262.71 61.152C263.35 57.92 263.974 54.56 264.582 51.072C264.678 50.432 264.55 49.888 264.198 49.44C263.878 48.96 263.51 48.688 263.094 48.624C262.774 48.56 262.23 48.512 261.462 48.48C260.726 48.448 259.99 48.432 259.254 48.432C258.518 48.4 258.038 48.4 257.814 48.432C257.654 48.432 257.574 48.368 257.574 48.24C257.574 48.112 257.654 47.984 257.814 47.856C257.974 47.696 258.134 47.616 258.294 47.616C259.606 47.616 261.142 47.648 262.902 47.712C264.662 47.776 266.294 47.808 267.798 47.808H268.662C269.59 47.808 270.806 47.664 272.31 47.376C273.814 47.088 275.286 46.944 276.726 46.944C278.006 46.944 279.174 47.152 280.23 47.568C281.286 47.984 282.134 48.608 282.774 49.44C283.446 50.24 283.782 51.28 283.782 52.56C283.782 52.816 283.766 53.088 283.734 53.376C283.702 53.664 283.654 53.968 283.59 54.288C283.334 55.568 282.742 56.816 281.814 58.032C280.886 59.216 279.766 60.272 278.454 61.2C277.174 62.096 275.83 62.784 274.422 63.264C273.526 63.552 272.758 63.76 272.118 63.888C271.478 63.984 270.934 64.032 270.486 64.032C270.358 64.032 270.23 64.032 270.102 64.032C269.974 64.032 269.862 64.016 269.766 63.984C270.214 64.592 270.918 65.408 271.878 66.432C272.838 67.424 273.91 68.496 275.094 69.648C276.278 70.768 277.462 71.856 278.646 72.912C279.83 73.968 280.886 74.896 281.814 75.696C282.774 76.464 283.462 76.976 283.878 77.232C284.326 77.52 284.838 77.776 285.414 78C285.99 78.256 286.406 78.416 286.662 78.48C286.822 78.544 286.902 78.656 286.902 78.816C286.902 79.072 286.774 79.2 286.518 79.2C286.39 79.2 286.23 79.152 286.038 79.056C285.782 78.928 285.542 78.864 285.318 78.864C285.062 78.864 284.854 78.928 284.694 79.056C284.534 79.216 284.374 79.344 284.214 79.44C283.83 79.696 283.35 79.92 282.774 80.112C282.23 80.304 281.67 80.4 281.094 80.4ZM288.394 77.376C288.298 77.376 288.25 77.328 288.25 77.232C288.25 77.104 288.33 76.96 288.49 76.8C288.682 76.608 288.842 76.528 288.97 76.56C289.738 76.56 290.426 76.576 291.034 76.608C291.642 76.608 292.17 76.608 292.618 76.608C293.77 76.608 294.618 76.496 295.162 76.272C295.706 76.016 296.138 75.504 296.458 74.736C296.778 73.968 297.162 72.784 297.61 71.184C297.834 70.416 298.058 69.648 298.282 68.88C298.506 68.112 298.682 67.344 298.81 66.576C298.874 66.384 298.922 66.032 298.954 65.52C299.018 65.008 299.034 64.64 299.002 64.416C298.906 62.912 298.698 61.504 298.378 60.192C298.09 58.88 297.818 57.808 297.562 56.976C297.306 55.984 297.018 55.104 296.698 54.336C296.378 53.568 296.058 52.896 295.738 52.32C294.97 50.912 294.122 49.952 293.194 49.44C292.298 48.928 291.226 48.672 289.978 48.672C289.562 48.672 289.114 48.72 288.634 48.816C288.186 48.88 287.69 48.912 287.146 48.912H287.05C286.922 48.912 286.858 48.864 286.858 48.768C286.858 48.64 286.938 48.496 287.098 48.336C287.258 48.176 287.418 48.096 287.578 48.096C289.178 48.032 290.746 47.92 292.282 47.76C293.85 47.568 295.418 47.408 296.986 47.28C297.082 47.28 297.178 47.28 297.274 47.28C297.402 47.248 297.53 47.232 297.658 47.232C298.01 47.232 298.394 47.376 298.81 47.664C299.258 47.92 299.69 48.48 300.106 49.344C300.554 50.208 300.986 51.536 301.402 53.328C301.818 55.12 302.17 57.552 302.458 60.624C302.522 61.136 302.602 61.488 302.698 61.68C302.826 61.872 302.954 61.968 303.082 61.968C303.242 61.968 303.402 61.888 303.562 61.728C303.754 61.536 303.914 61.376 304.042 61.248C304.778 60.416 305.594 59.312 306.49 57.936C307.386 56.528 308.186 55.184 308.89 53.904C309.338 53.072 309.658 52.368 309.85 51.792C310.074 51.184 310.186 50.672 310.186 50.256C310.186 49.488 309.93 48.976 309.418 48.72C308.906 48.464 308.298 48.336 307.594 48.336C306.922 48.336 306.298 48.336 305.722 48.336H305.578C305.482 48.336 305.434 48.304 305.434 48.24C305.434 48.112 305.546 47.952 305.77 47.76C305.994 47.568 306.17 47.504 306.298 47.568C308.186 47.6 309.642 47.648 310.666 47.712C311.69 47.744 312.57 47.76 313.306 47.76C314.234 47.76 315.29 47.744 316.474 47.712C317.69 47.648 318.874 47.616 320.026 47.616C320.154 47.616 320.218 47.664 320.218 47.76C320.218 47.888 320.138 48.048 319.978 48.24C319.818 48.432 319.658 48.512 319.498 48.48C319.306 48.48 318.858 48.528 318.154 48.624C317.482 48.688 316.682 48.976 315.754 49.488C314.826 49.968 313.866 50.848 312.874 52.128C312.138 53.088 311.226 54.272 310.138 55.68C309.05 57.088 307.946 58.576 306.826 60.144C305.738 61.68 304.762 63.152 303.898 64.56C303.706 64.88 303.53 65.216 303.37 65.568C303.242 65.888 303.13 66.24 303.034 66.624C302.618 68.352 302.314 69.84 302.122 71.088C301.962 72.336 301.85 73.376 301.786 74.208C301.69 74.976 301.85 75.52 302.266 75.84C302.714 76.16 303.066 76.352 303.322 76.416C303.674 76.448 304.218 76.48 304.954 76.512C305.722 76.544 306.474 76.576 307.21 76.608C307.946 76.608 308.426 76.608 308.65 76.608H308.698C308.826 76.608 308.89 76.656 308.89 76.752C308.89 76.88 308.81 77.024 308.65 77.184C308.49 77.312 308.314 77.376 308.122 77.376C306.874 77.376 305.402 77.344 303.706 77.28C302.042 77.216 300.458 77.184 298.954 77.184C298.57 77.184 298.202 77.184 297.85 77.184C297.498 77.184 297.162 77.2 296.842 77.232C296.362 77.232 295.658 77.248 294.73 77.28C293.802 77.312 292.778 77.344 291.658 77.376C290.538 77.376 289.466 77.376 288.442 77.376H288.394Z" fill="black"/>
</svg>
